<?xml version="1.0" encoding="utf-8"?>
<!-- Generator: Adobe Illustrator 24.0.2, SVG Export Plug-In . SVG Version: 6.00 Build 0)  -->
<svg version="1.1" id="Layer_1" xmlns="http://www.w3.org/2000/svg" xmlns:xlink="http://www.w3.org/1999/xlink" x="0px" y="0px"
	 viewBox="0 0 714.3 312.6" style="enable-background:new 0 0 714.3 312.6;" xml:space="preserve">
<g>
	<g>
		<g>
			<path d="M437.7,171.4c-1.1,0.8-1.9,1.5-2.3,2.2c-1.9,3.2-0.4,7.1,4.6,11.7c2.1,1.9,5.1,4.5,9.1,7.6l6.4,5.3
				c7.4,6.2,12,13.4,13.8,21.3c1.2,5.4,1,10.2-0.7,14.6c-1.8,4.4-4.7,8.3-8.6,11.8c-2.9,2.4-5.6,4-8,4.9c-4.6,1.7-9.7,2.4-15.1,2
				c-8.1-0.6-14.6-3.5-19.5-8.6c-3-3.3-4.9-6.7-5.6-10.4c-1.2-6.4,0.2-12.5,2.9-16.6c1.4-2.1,4.3-5,6.2-6.4c2.3-1.6,5.1-2.5,8.7-2.6
				c3.7,0,6.9,0.9,9.9,2.7c2.8,1.8,4.5,4,5.3,6.5c0.6,1.9,0.7,3.8,0.4,5.5c-0.3,1.7-0.7,3.1-1.2,4c-1.5,3-3.9,4.7-7.2,5.1
				c-1.2,0.1-2.4,0.1-3.5-0.1c-2.6-0.5-3.8-1.6-3.8-3.5c0.1-1.8,1.1-2.9,2.8-2.8c1.4,0.1,2.3,0.7,2.6,1.9l0.3,1.2l1.2-0.3
				c3.8-1.3,5.4-4.1,4.8-8.4c-0.7-3.9-3.1-6.6-7.4-7.9c-2.9-0.9-5.6-0.8-8.2,0.2c-3.6,1.6-6.4,4.3-8.2,8.2
				c-2.3,4.7-2.7,9.2-1.2,13.7c1.7,5,4.8,8.3,9.3,10c4.8,1.8,9.9,1.9,15.6,0.6c7.4-2,11.1-4.7,14.2-10.9c1.6-3.1,2.4-6,2.4-8.8
				c0-3.1-0.6-5.9-1.7-8.4c-2.2-4.9-4.5-7.5-8.2-10.6c-1.8-1.4-3.5-2.8-5.3-4.2l-0.8-0.6c-4.7-3.5-7.8-6.1-9.4-7.8
				c-3.3-3.6-5.9-7.3-6-13.1c0-4.8,2-8.7,6-11.7c2.7-2,5.7-3,9-3.3c4.8-0.2,8.3,1.4,10.5,4.9c1.2,2,1.4,3.9,0.7,5.8
				c-0.4,1.1-0.8,1.8-1.3,2c-1,0.5-2.1,0.4-3.3-0.1c-1.2-0.6-1.8-1.5-1.8-2.8c0-0.7,0.2-1.4,0.7-1.8l0.7-0.9l-0.9-0.7
				C444.3,170.3,440.1,169.6,437.7,171.4z M428.1,183c0.4,2.1,1.2,4,2.4,5.8c1.6,2.4,5.1,5.7,10.4,9.9c4.6,3.6,7.7,6.2,9.4,7.7
				c3.9,3.4,7,6.9,8.4,12.3c1.3,4.8,1.6,9.2-0.2,13.1c-2,4.6-3.1,6.5-5.6,9.1c-1,1-1.7,2-0.1,0.9c0.6-0.4,1.5-1.3,2.7-2.6
				c1.9-2.2,4.4-7.3,5-10.7c0.3-1.6,0.3-3.1,0.2-4.7c-0.5-3.6-1.2-6.7-2.3-9.2c-1.1-2.5-3.3-5.3-6.5-8.2c-4.1-3.7-8.5-7-13.1-10.9
				c-2.6-2.2-4.7-4.1-6.1-5.8c-1.4-1.7-2.4-3.4-2.9-4.9c-1.2-3.8-1.4-7.1-0.4-9.8c0.4-1.1,0.3-1.1-0.4,0.1
				C427.7,177,427.4,179.7,428.1,183z"/>
			<path d="M503.2,184.4c0.1-0.6-0.1-0.8,0.6-1c0.8-0.2,1,0.2,1.3,0.7l1.5,10.4l-0.1,0.6c-0.1,0.4-0.4,0.6-0.9,0.5
				c-0.5,0-0.7-0.3-0.7-0.8c0.1-0.8-1.2-1.8-2-2.3h-10.2c-0.4,0.6-0.6,1.2-0.8,1.8v29.3c0,3.2,0.6,5.3,2.4,7.4
				c0.7,0.8,1.2,1.2,1.8,1.2c0.5,0,0.8,0.3,0.8,1c0,0.7-0.4,1-1.1,1.1l-1.1,0.1h-16.6l-1.1-0.1c-0.8-0.1-1.1-0.5-1.1-1.1
				c0-0.7,0.3-1,0.8-1c0.5,0,1.1-0.4,1.8-1.2c1.8-2.1,2.4-4.1,2.4-7.4v-29.3c-0.2-0.6-0.5-1.1-0.8-1.8h-10.2
				c-0.8,0.5-2.2,1.6-2.1,2.3c0.1,1-1.4,1.1-1.5,0.2l-0.1-0.6l1.4-10.4c0.3-0.5,0.5-0.8,1.3-0.7c0.3,0.1,0.5,0.2,0.5,0.4
				s0,0.4,0.1,0.6H503.2z M468.2,191.8l0.8-5.3c0.1-0.8-0.4-0.5-0.5-0.1l-0.8,5.3C467.5,193.4,468.1,192.8,468.2,191.8z
				 M482.1,194.1v33.4c-0.2,0.8-0.2,1.3,0.1,1.2c0.2,0,0.5-0.4,0.7-1.2V194c0-0.6-0.7-2.1-1.1-2.2c-0.3,0-0.4,0.1-0.2,0.4
				C481.9,193.2,481.9,193,482.1,194.1z"/>
			<path d="M532.2,234.4c-4.1,0-7.8-0.4-10.6-2c-3.5-2-6.8-6.4-7.8-10.7c-0.1-0.6-1-7.3-0.9-8.2v-23c-0.3-1-0.9-2.1-1.9-3.3
				c-0.6-0.8-1.1-1.2-1.5-1.1c-0.8,0.1-0.8-1.4,0-1.5l0.6-0.1h8h0.7h7.9c0.7,0.1,1.2,0.1,1.2,1c0,0.5-0.2,0.7-0.6,0.7
				c-0.4-0.1-0.8,0.3-1.5,1.1c-1,1.4-1.6,2.5-1.8,3.3v22.3c0,4.6,0.3,8.4,1.3,12.1c0.7,2.6,3,3.5,6.4,3.8c0.5,0.1,0.9,0.1,1.2,0.1
				c0.7,0,1.5-0.2,2.4-0.5c2.7-0.9,4.5-2.2,5.2-3.9c0.7-1.7,1.1-3.7,1.3-5.9v-28c-0.2-0.9-0.9-2-1.9-3.3c-0.6-0.8-1.1-1.2-1.5-1.1
				c-0.7,0.1-0.8-1.4,0-1.5l0.6-0.1H554c0.7,0.1,1.2,0.1,1.2,1c-0.1,0.5-0.3,0.7-0.6,0.7c-0.4-0.1-0.8,0.3-1.4,1.1
				c-1,1.2-1.6,2.3-1.9,3.3l0.1,22.1c0,2.5-0.6,7.5-1.1,9.5c-1,3.9-3,6.9-6.3,9.1c-3.2,2.2-6.7,3.2-10.3,3.2H532.2z M512.9,213.6
				L512.9,213.6L512.9,213.6z M514.3,189.6v19.5l0.2,7c0,1.4,0.9,6.4,1.5,7.1c0.5,0.7,0.8,0.9,0.7,0.6c0-0.3-0.1-0.6-0.2-0.9
				c-0.5-1.1-1.1-4.9-1.1-6.8l-0.2-7.2v-19.5c-0.1-0.6-1.4-2.9-1.9-3c-0.3,0-0.4,0.1-0.3,0.4C513.5,187.9,514,188.4,514.3,189.6z
				 M543.3,189.7V219c0,3-0.7,4.4-1.5,6.2c-0.4,0.9-0.4,1.4-0.2,1.3c0.3,0,0.6-0.4,1-1.3l0.9-2.1c0.4-0.8,0.6-2.2,0.6-4.2v-29.4
				c-0.1-0.6-1.4-2.9-1.9-3c-0.4-0.1-0.5,0-0.3,0.4C542.6,188,543.1,188.4,543.3,189.7z"/>
			<path d="M576.9,184.5c3.4,0,8.1,0.3,11.3,0.9c4.5,1,8.5,3.1,11.5,5.8c2.8,2.6,5.2,6.8,6.6,11.4c1.8,5.8,1.5,11.9-0.7,17.3
				c-3.6,8.7-10.4,14-21.7,14.4c-1.7,0.1-2.9,0.1-3.5,0.1h-2.4c-0.8,0-0.2,0-1,0h-0.5c0,0-0.1,0-0.4,0h-14.9l-1.1-0.1
				c-0.8-0.1-1.1-0.4-1.1-1.1c0-0.7,0.3-1,0.8-1c0.5,0,1.1-0.4,1.8-1.2c1.8-2.1,2.4-4.1,2.4-7.4v-33c-0.3-0.9-0.9-2-1.8-3.3
				c-0.6-0.8-1.1-1.2-1.5-1.1c-0.8,0.1-0.8-1.4,0-1.6l0.6-0.1l14.9,0h0.4l0.1,0H576.9z M565.3,190.1v38.1c-0.2,0.9-0.2,1.4,0.1,1.4
				c0.3,0,0.5-0.5,0.8-1.4v-38.3c-0.1-0.6-1.4-2.9-1.9-3c-0.4,0-0.4,0.1-0.3,0.4C564.6,188.4,565.2,188.8,565.3,190.1z M576.9,192
				h-1.8v34.3h1.6c1.6,0,1.3,0,3.1-0.1c9.9-0.3,13.9-4.2,15.1-13.6c0.6-4.3-0.1-8.3-1.6-11.3c-1.1-1.9-1.8-3.1-3.3-4.8
				c-2.3-2.7-5-4.1-8.2-4.3L577,192H576.9z M589.5,193.9c2.7,1.9,4.8,4.8,6.2,8.1c1,2.4,1.5,4.8,1.5,7.4c0,5-1.2,9.8-3.6,12.6
				c-0.4,0.5-3.9,3.7-3.6,4c0.1,0.1,0.3,0,0.8-0.3c1.4-1,3.7-3.3,4.9-5.2c2.2-3.6,3.2-11.7,1.6-16.7c-1.1-3.4-3-6.6-5.1-8.7
				c-1-1-2.2-1.7-3.3-2.2c-1.2-0.5-1.5-0.5-0.8,0C588.3,193,588.8,193.4,589.5,193.9z"/>
			<path d="M628.9,184.4c0.7,0.1,1.2,0.1,1.2,1c0,0.5-0.2,0.7-0.6,0.7c-0.4-0.1-0.8,0.3-1.5,1.1c-1,1.2-1.6,2.4-1.9,3.3v33
				c0,3.2,0.6,5.3,2.4,7.4c0.7,0.8,1.2,1.2,1.8,1.2c0.5,0,0.8,0.3,0.8,1c0,0.7-0.4,1-1.1,1.1l-1.1,0.1h-16.6l-1.1-0.1
				c-0.8-0.1-1.1-0.5-1.1-1.1c0-0.7,0.3-1,0.8-1c0.5,0,1.1-0.4,1.8-1.2c1.8-2.1,2.4-4.1,2.4-7.4v-33c-0.3-1-0.9-2.1-1.9-3.3
				c-0.6-0.8-1.1-1.2-1.5-1.1c-0.7,0.1-0.8-1.4,0-1.6l0.6-0.1H628.9z M616.4,189.9v38c-0.2,1-0.2,1.4,0.1,1.4c0.3,0,0.5-0.5,0.8-1.4
				v-38.1c0-0.7-0.8-2.3-1.3-2.5c-0.4-0.1-0.5,0.1-0.3,0.4C616.3,188.8,616.3,188.5,616.4,189.9z"/>
			<path d="M677.7,191.6c5.1,4.9,7.6,10.9,7.6,17.8c0,7-2.5,12.9-7.6,17.8c-5.1,4.9-11.1,7.4-18.3,7.4s-13.2-2.5-18.3-7.4
				c-5.1-4.9-7.6-10.9-7.6-17.8c0-7,2.5-12.9,7.6-17.8c5.1-4.9,11.1-7.4,18.3-7.4S672.7,186.6,677.7,191.6z M649.8,187.9
				c0.3-0.2,0.8-0.7,0-0.3c-1.9,0.8-2,1-4.6,2.9c-4.2,3.2-5.9,5.4-7.9,10.8c-2.3,5.9-2.3,10.3-0.1,15.8c1.7,4.2,4.2,8.6,7.6,11
				c0.8,0.6,4.6,3.2,4.9,2.6c0-0.1-0.1-0.3-0.5-0.7c-0.4-0.4-1.2-0.8-2.3-1.4c-2.1-1-3.2-2.7-4.7-4.6c-2.8-3.4-5.1-8.9-5.4-13.2
				c-0.6-6.1,2.2-11.9,4.8-15.6c0.9-1.3,2.2-2.7,3.9-4C647.5,189.8,648.6,188.8,649.8,187.9z M650.8,196.8
				c-2.4,3.5-3.6,7.7-3.6,12.6c0,4.9,1.2,9.2,3.6,12.6c2.4,3.5,5.3,5.2,8.7,5.2c3.4,0,6.3-1.7,8.7-5.2c2.4-3.5,3.6-7.7,3.6-12.6
				c0-4.9-1.2-9.1-3.6-12.6c-2.4-3.5-5.3-5.2-8.7-5.2C656.1,191.5,653.2,193.3,650.8,196.8z M667.3,192.8c2.5,2.1,4.3,5.2,5.6,8.7
				c2.5,7.1,0.8,17-2.6,21.7c-0.5,0.7-1.2,1.4-2,2c-0.8,0.7-1.4,1.2-1.7,1.6c-0.8,1.1-0.7,1.2,0.4,0.4c1.5-1.1,4-3.5,5-5.1
				c2.6-4.3,4.5-12.4,2.7-18.7c-1.1-3.7-2.6-6.7-4.8-9.3c-0.9-1.1-1.9-1.8-3-2.4c-1-0.5-1.3-0.5-0.7,0
				C666.2,191.8,666.7,192.2,667.3,192.8z"/>
		</g>
		<g>
			<path d="M225.7,63.8c-4.4,6.1-11.7,13.4-16,16.2l-7-1.1c3.8-4.1,9-11.6,11.7-17.1L225.7,63.8z"/>
		</g>
		<g>
			<path d="M126.5,19.2c-0.7,0.5-1.2,1-1.6,1.5c-1.3,2.1-0.3,4.8,3.1,7.9c1.4,1.3,3.4,3,6.1,5.1l4.3,3.6c5,4.2,8.1,9,9.3,14.3
				c0.8,3.6,0.7,6.9-0.5,9.8c-1.2,2.9-3.1,5.6-5.8,7.9c-1.9,1.6-3.7,2.7-5.4,3.3c-3.1,1.2-6.5,1.6-10.2,1.4
				c-5.4-0.4-9.8-2.3-13.1-5.8c-2-2.2-3.3-4.5-3.8-7c-0.8-4.3,0.1-8.4,2-11.1c0.9-1.4,2.9-3.3,4.2-4.3c1.5-1.1,3.5-1.7,5.8-1.8
				c2.5,0,4.7,0.6,6.6,1.8c1.9,1.2,3.1,2.7,3.6,4.4c0.4,1.3,0.5,2.5,0.3,3.7c-0.2,1.2-0.5,2.1-0.8,2.7c-1,2-2.6,3.2-4.8,3.4
				c-0.8,0.1-1.6,0.1-2.3,0c-1.7-0.3-2.6-1.1-2.5-2.3c0-1.2,0.7-1.9,1.9-1.9c0.9,0.1,1.5,0.5,1.8,1.2l0.2,0.8l0.8-0.2
				c2.6-0.9,3.7-2.8,3.3-5.7c-0.4-2.7-2.1-4.4-5-5.3c-1.9-0.6-3.8-0.5-5.5,0.2c-2.4,1.1-4.3,2.9-5.5,5.5c-1.5,3.1-1.8,6.2-0.8,9.2
				c1.2,3.3,3.3,5.6,6.3,6.8c3.2,1.2,6.7,1.3,10.5,0.4c5-1.4,7.4-3.2,9.5-7.3c1-2.1,1.6-4,1.6-5.9c0-2.1-0.4-4-1.1-5.6
				c-1.5-3.3-3-5-5.5-7.1c-1.2-1-2.4-1.9-3.6-2.9l-0.5-0.4c-3.1-2.3-5.3-4.1-6.3-5.3c-2.2-2.4-4-4.9-4-8.8c0-3.3,1.3-5.9,4-7.8
				c1.8-1.3,3.8-2.1,6-2.2c3.2-0.1,5.6,1,7.1,3.3c0.8,1.3,1,2.6,0.5,3.9c-0.3,0.8-0.6,1.2-0.9,1.4c-0.7,0.3-1.4,0.3-2.2-0.1
				c-0.8-0.4-1.2-1-1.2-1.9c0-0.5,0.2-0.9,0.5-1.2l0.5-0.6l-0.6-0.5C131,18.5,128.2,18,126.5,19.2z M120.1,27
				c0.2,1.4,0.8,2.7,1.6,3.9c1.1,1.6,3.4,3.8,7,6.6c3.1,2.4,5.2,4.1,6.3,5.2c2.6,2.3,4.7,4.7,5.7,8.2c0.9,3.2,1.1,6.2-0.1,8.8
				c-1.4,3.1-2.1,4.3-3.8,6.1c-0.7,0.7-1.2,1.3-0.1,0.6c0.4-0.3,1-0.9,1.8-1.8c1.3-1.5,3-4.9,3.4-7.2c0.2-1.1,0.2-2.1,0.1-3.1
				c-0.3-2.4-0.8-4.5-1.6-6.2s-2.2-3.5-4.4-5.5c-2.7-2.5-5.7-4.7-8.8-7.3c-1.8-1.5-3.2-2.8-4.1-3.9c-1-1.2-1.6-2.3-2-3.3
				c-0.8-2.6-0.9-4.8-0.3-6.6c0.2-0.7,0.2-0.8-0.3,0C119.8,23,119.6,24.8,120.1,27z"/>
			<path d="M162.8,71.1l-0.6-0.1c-0.4,0-0.7-0.2-0.9-0.5c-0.2-0.3-0.1-0.5,0.1-0.5c0.3,0,0.5-0.2,0.6-0.6c0.5-1.3-0.1-3.1-1.8-5.3
				s-2.9-3.7-3.7-4.6c-0.2-0.2-0.5-0.3-0.9-0.5c-0.4,0-0.7,0-0.9,0h-0.5V67c0.2,0.8,0.6,1.5,1.2,2.1c0.4,0.5,0.7,0.7,1,0.7
				c0.3,0,0.5,0.2,0.5,0.6c0,0.4-0.2,0.6-0.7,0.7l-0.7,0.1h-9.6l-0.7-0.1c-0.5,0-0.7-0.3-0.7-0.7c0-0.4,0.1-0.6,0.4-0.6
				s0.6-0.2,1.1-0.7c1.1-1.2,1.4-2.4,1.4-4.4l0,0.2l0-19.9c-0.2-0.6-0.5-1.2-1.1-2c-0.4-0.5-0.7-0.7-0.9-0.7c-0.4,0.1-0.5-0.8,0-0.9
				l0.4-0.1H159c2.9,0.1,5.5,0.8,7.1,2.4c2,2,3.6,4.9,2.8,8.8c-0.4,2.2-3,4.7-4.8,5.5c-0.4,0.2-1,0.4-1.5,0.5
				c2.6,3.2,4.3,5.8,6.5,9.1c0.5,0.7,1.2,1.2,2,1.8c0.6,0.4,1,0.6,1.2,0.6s0.5,0.2,0.7,0.5c0.2,0.3,0.1,0.5-0.3,0.6l-0.6,0.1h-4.3
				l-2.8,0H162.8z M148.4,44.7v22.5c-0.1,0.6-0.1,0.8,0.1,0.8c0.2,0,0.3-0.3,0.5-0.8V44.6c0-0.4-0.5-1.4-0.8-1.5
				c-0.2-0.1-0.3,0-0.2,0.2C148.3,44.1,148.3,43.9,148.4,44.7z M154.7,55h1.4c0.9,0,2.6,0,3.4-0.2c2.1-0.4,3.6-2.2,3.5-4.6
				c-0.2-2.9-3.1-3.9-6.3-3.9h-2.5V55H154.7z M158,59.8c2,2.5,3.9,5.3,5.2,8.4c0.1,0.3,0,0.5,0.1,0.7c0.3,0.6,0.5-0.7,0.3-1
				c-1.3-3.2-3.3-5.9-5.3-8.5c-0.2-0.2-1.1-0.9-1.5-0.8c-0.3,0.1-0.3,0.2,0,0.3C157.3,59.2,157.7,59.5,158,59.8z M163.2,53.5
				c-0.2,0.4-0.6,0.8-1.1,1.1c-0.3,0.2-0.4,0.3-0.4,0.4c0.2,0.1,0.4,0.1,0.7-0.1c1.1-0.5,1.9-2.1,1.9-3.9c0-1.8-0.6-3.3-1.5-4.1
				c-0.5-0.4-0.8-0.5-1.1-0.5c-0.1,0,0,0.2,0.4,0.4C163.7,47.9,164.4,51.4,163.2,53.5z"/>
			<path d="M178.2,72.6c-2.1,0-3.7-1.6-3.7-3.7c0-2.1,1.7-3.8,3.7-3.8c2.1,0,3.8,1.7,3.8,3.8C181.9,70.9,180.2,72.6,178.2,72.6z"/>
		</g>
		<g>
			<g>
				<path d="M139,82.8c0-1.5,1-2.3,2.8-2.4c1.9-0.1,3,1,3.3,3.2c0.2,1.3,0.3,2,0.4,3.4c0.3,17.9,0.4,35.9,0.6,53.8
					c-4.5,0.4-6.7,0.5-11.1,0.8c-3.3,0.2-6.2-1.8-8.6-6.1c-5.1-18.8-10.4-28.1-15.9-31.3c-5.4-3.2-9.9-3.4-15.9-3.1
					c-8.1,0.5-16,4.9-23.9,16.3c-7.9,11.5-12.4,26.2-13.1,43.4c-0.7,17.3,2.6,31.4,10.2,42.1c7.6,10.6,16,14.9,24.9,14.8
					c8.8-0.2,16.7-3.1,23.7-9.2c6.9-6.1,10.8-14.7,11.7-26.5c7.8-0.6,11.8-1,19.7-1.9c-1.1,18-6.6,31.3-16.7,40.6
					c-10.1,9.4-24.4,13.1-42,13.6c-16.8,0.4-37.3-7.3-47.8-18.2c-14.5-15.3-19.3-38-18-59.6c1.2-21,7.4-44.1,23.6-59.9
					c13.9-13.2,28.6-18.1,44.6-17.3c14.5,0.7,26.3,5,35.6,14.7C130.7,92.5,139,87.3,139,82.8z M68.1,88.6c0.5-0.4,0.8-0.6,1-0.8
					c0.4-0.5,0.1-0.6-1-0.1c-4.9,1.9-5.3,2.4-12,7.8c-4.6,3.7-7.8,6.8-9.6,9.1c-10.7,15.4-18.5,35.5-18.6,52.5
					c-0.1,16.7,2.5,34.3,11.8,49.2c2.8,5,6.2,8.9,10.2,12c4,3,7.6,5.1,10.6,6.6c3.3,1.6,3.4,0.8,1.4-1c-1.2-0.9-3.2-2.1-6.1-3.7
					c-5.6-3-8.7-7.7-12.5-13.2c-7.1-10.4-13.1-29.8-12.4-43.9c0.9-17.7,4.6-36.2,15.4-52.9c2.6-4.2,6.1-8.3,10.6-12.1
					C62,93.7,64.8,91.1,68.1,88.6z"/>
				<path d="M230.2,106.5c8.8,10.5,13.2,24.3,13.1,40.9c-0.1,16.6-4.6,31-13.7,42.5c-9.1,11.6-20,17.2-32.8,18.1
					c-12.8,0.9-23.7-3.2-32.4-13.6c-8.7-10.5-12.3-24.9-12-41.6c0.2-14,5.6-32.3,14.5-43.5c9-11.3,19.4-16.9,31.7-17.4
					C210.8,91.5,221.4,96,230.2,106.5z M181.8,100.7c0.5-0.5,1.4-1.5-0.1-0.7c-3.3,1.8-3.6,2.2-8,6.8c-7.4,7.6-10.4,12.7-14.4,26
					c-4.4,14.4-5,25.6-1.5,38.5c2.6,9.9,6.9,19.7,12.8,24.8c1.3,1.2,8.1,6.4,8.6,5.2c0-0.2-0.3-0.7-0.9-1.4c-0.7-0.7-2.1-1.6-4-2.7
					c-3.7-2.1-5.5-5.7-8.1-9.7c-4.7-7.4-8.3-20.6-8.6-31c-0.5-15,4.8-29.3,9.5-38.3c1.7-3.2,4-6.4,7-9.6
					C177.7,104.9,179.6,102.8,181.8,100.7z M182.9,121.4c-4.4,8.5-6.8,19-7.1,31.1c-0.3,12.1,1.5,22.1,5.6,29.9
					c4.1,7.8,9.2,11.1,15.3,10.7c6.1-0.4,11.2-4.5,15.6-12.8c4.3-8.3,6.6-18.5,6.7-30.4c0.1-11.9-1.8-21.9-5.9-29.9
					c-4.1-8-9-11.7-14.9-11.4C192.4,108.7,187.3,112.9,182.9,121.4z M211.9,110.6c4.3,4.6,7.4,11.7,9.5,20
					c3.6,16.9,2.5,36.2-5.2,51.9c-1,1.7-2.2,3.3-3.7,4.9c-1.5,1.6-2.5,2.8-3,3.6c-1.5,2.5-1.2,2.7,0.7,0.9c2.7-2.5,7.1-8.3,8.9-12.1
					c4.7-10.3,8.3-29.9,5.2-45c-1.9-8.8-4.4-15.7-8.2-21.6c-1.6-2.4-3.4-4.1-5.2-5.3c-1.7-1.1-2.2-1-1.3,0
					C210,108.5,210.7,109.4,211.9,110.6z"/>
				<path d="M278.6,153.9c-0.7,0.1-1,0.1-1.6,0.2c0.1,12.3,0.1,18.3,0.3,29.4c0.7,2.7,2,5,3.7,6.8c1.3,1.4,2.4,1.9,3.3,1.8
					c0.9-0.2,1.4,0.4,1.5,1.7c0,1.3-0.6,2.1-2,2.5c-0.8,0.2-1.2,0.3-2.1,0.6c-11.8,2-17.7,2.9-29.5,4.6c-0.8,0-1.3,0-2.1,0.1
					c-1.4,0-2.1-0.6-2.1-1.9c0-1.3,0.4-2.1,1.3-2.2c0.9-0.1,2-1,3.2-2.8c3.2-4.7,4.2-9,4.1-16.2c0,0.3,0,0.5,0.1,0.8
					c-0.2-25.8,0-51.6,0-77.4c-0.6-2.1-1.7-4.4-3.3-7c-1.1-1.6-2-2.3-2.6-2.2c-1.3,0.4-1.5-2.8-0.1-3.2c0.4-0.1,0.7-0.2,1.1-0.3
					c5.6-0.4,8.4-0.7,14.1-1.2c10.1-0.9,15.1-1.4,25.3-2.4c0,0,0,0,0,0.1c6-0.4,9.9-0.3,14.9,1.7c7.2,2.8,12.5,10.2,14.8,18.8
					c1.3,5,1.6,10.4,0.7,16.4c-0.6,4.2-2.5,8.6-5.5,13.1c-3,4.6-6.1,7.9-9.1,10c-1.6,1.1-2,2.6-3.8,3.4
					c6.6,12.4,14.7,24.4,24.4,34.5c9.7,10.1,20.9,13,33.2,11.7c8.2-0.9,15.6-2.6,22.1-5.4c6.5-2.7,15-6.8,25.4-12.3
					c3.4-1.9,5.1-1.3,5.1,1.6s-1.8,6.4-5.2,10.4c-3.4,4-8.5,7.8-15.4,11.5c-6.9,3.7-15.6,6.5-26.2,8.7c-11.2,2.4-20.6,3.1-28.1,1.1
					c-7.5-2-13.5-5-18.3-8.7c-9.5-7.6-17-17.2-22.8-27.5c-5.8-10.3-9.5-17.3-11.5-19.7c-0.7-0.8-2.3-1.1-3.3-1.6
					C281.9,153.6,279.7,153.8,278.6,153.9z M259.4,100.5c0,28.9-0.2,57.9,0.2,86.8c-0.3,2-0.3,3,0.2,2.8c0.5-0.1,0.9-1.1,1.4-3.1
					c-0.5-29-0.2-58.1-0.3-87.1c-0.1-1.4-1.4-4.9-2.3-5.1c-0.7-0.2-0.9,0.1-0.5,0.9C259.2,98.2,259,97.7,259.4,100.5z M282.6,137.5
					c2.9-0.4,7.9-1.1,10.4-2.2c6.2-2.5,10.9-10.1,10.4-19.1c-0.6-10.7-9.5-13.5-19.2-12.4c-3,0.3-4.5,0.5-7.5,0.8
					c0.1,12.9,0.1,19.9,0.2,33.6C279.2,137.9,280.4,137.8,282.6,137.5z M296.7,166.5c0.5,0.8,0.7,1.2,1.2,2c3,5.5,6.1,10.9,9.6,15.6
					c4.9,6.5,10.6,12.1,17,16.8c3.4,2.5,6.7,4.3,9.7,5.5c3.1,1.2,6.1,1.7,9.4,2.4c0,0,16.5,1.5,17.1-0.4c0-0.2-6.9,0-7.2,0
					c-3.2-0.2-7.4-0.3-10-0.9c-1.6-0.4-2.4-0.6-4-1c-7.9-2-16.6-8.7-22.5-14.6c-6.6-6.6-12.7-15.4-18-24.8c-0.4-0.8-0.7-1.2-1.1-2
					c-0.3-0.6-1.6-2.9-3.9-7.1c-2.2-4.2-3.6-5.8-4.2-5C289.3,154,296.6,166.4,296.7,166.5z M306.2,120.3c-0.3,4.9-1.3,8.6-3.5,11.2
					c-0.6,0.7-3,3.3-2.8,3.4c0.5,0.4,1.3,0.1,2.3-0.8c3.4-2.6,5.6-8.9,5.5-15.6c0-6.6-2-12.3-4.8-14.8c-1.4-1.3-2.5-1.7-3.3-1.4
					c-0.3,0.2,0.1,0.7,1.1,1.4C304.2,106.8,306.6,112.3,306.2,120.3z"/>
				<path d="M366.4,78.3c6.2-0.6,15-1.1,20.8-0.5c8.2,0.8,15.9,4,21.7,8.5c5.4,4.3,10,12.1,12.9,21c3.6,11.4,3.4,24.3-0.2,35.8
					c-5.4,18.4-20.7,30.8-39,34.9c-3.2,0.7-5.4,1.2-6.5,1.5c-1.8,0.4-2.7,0.5-4.5,0.9c-1.5,0.3-0.3,0-1.8,0.3
					c-0.4,0.1-0.6,0.1-0.9,0.2c0,0-0.1,0-0.7,0.1c-11,2.2-16.5,3.2-27.5,5.4c-0.9,0.1-1.3,0.1-2.1,0.2c-1.4,0.1-2.2-0.4-2.2-1.7
					c-0.1-1.2,0.4-2,1.3-2.1c0.9-0.2,2-1.1,3.2-2.9c3.2-4.7,4.1-8.9,3.9-15.7c-0.6-23.8-1-47.7-1.5-71.5c-0.5-1.8-1.7-3.9-3.5-6.3
					c-1.2-1.4-2.1-2.1-2.7-1.9c-1.4,0.4-1.5-2.5-0.2-2.9c0.4-0.1,0.7-0.2,1.1-0.4c10.9-1.1,16.3-1.7,27.2-2.7c0.3,0,0.4,0,0.7-0.1
					c0.1,0,0.1,0,0.2,0C366,78.3,366.2,78.3,366.4,78.3z M345.7,91.3c0.7,27.3,1,54.6,1.9,81.9c-0.3,2-0.2,2.8,0.3,2.7
					c0.5-0.2,1-1.1,1.4-3c-0.9-27.4-1.2-54.7-1.9-82.1c-0.1-1.2-2.6-5.4-3.6-5.6c-0.6,0-0.8,0.3-0.5,0.8
					C344.3,88,345.3,88.7,345.7,91.3z M367,92.6c-1.3,0.2-2,0.2-3.3,0.4c0.6,24.3,1.1,48.6,1.8,72.9c1.1-0.2,1.7-0.3,2.9-0.5
					c3-0.5,2.5-0.6,5.7-1.2c16.3-3.2,26.1-16.7,27-32.8c0.5-9-0.6-17.5-3.7-23.3c-2.1-3.8-3.5-5.9-6.3-9.2c-4.4-5-9.5-7.2-15.2-6.8
					c-3.5,0.2-5.2,0.3-8.7,0.6C367.1,92.6,367.1,92.6,367,92.6z M390.1,93.6c5,3.2,9.2,8.6,11.8,15c1.9,4.6,3,9.7,3.1,15.2
					c0.3,10.5-1.6,20.9-5.9,27.4c-0.7,1.1-6.9,8.6-6.3,9.1c0.2,0.1,0.6-0.1,1.4-0.8c2.6-2.4,6.6-7.8,8.7-12.1c3.9-8,5.3-25.4,2-35.5
					c-2.2-6.9-6-12.9-9.9-16.6c-2-1.7-4.1-2.9-6.3-3.7c-2.2-0.8-2.7-0.7-1.4,0.2C387.9,92.1,388.8,92.8,390.1,93.6z"/>
				<path d="M507,79.4c9.7,7.9,14.6,18.5,14.9,31.6c0.3,13.2-4,24.7-12.9,34.3c-8.9,9.6-19.8,14.8-32.9,16.7
					c-13.1,1.9-24.6-0.1-34.3-7.8c-9.7-7.7-14.8-19.1-15.2-33.5c-0.4-14.4,3.9-27.1,12.9-36.9c9-9.8,20-14.2,33.1-14.8
					C485.8,68.4,497.3,71.5,507,79.4z M455.1,76.2c0.5-0.4,1.4-1.2-0.1-0.5c-3.4,1.6-3.7,1.8-8.2,5.7c-7.5,6.4-10.4,10.7-13.9,21.9
					c-3.8,12.2-3.7,21.7,0.7,32.2c3.4,8,8.4,15.7,14.9,19.3c1.5,0.8,8.8,4.4,9.3,3.3c0-0.2-0.3-0.6-1-1.1c-0.8-0.6-2.3-1.1-4.3-1.8
					c-3.9-1.3-6.1-4.1-9-7.2c-5.4-5.7-9.9-16.3-10.9-25c-1.4-12.5,3.3-24.7,7.9-32.3c1.6-2.7,3.9-5.4,7-8.1
					C451,79.6,452.9,77.9,455.1,76.2z M457.6,92c-4.2,7-6.2,15.6-5.9,25.5c0.3,10,2.8,18.2,7.4,24.2c4.7,6.1,10.1,8.4,16.4,7.6
					c6.2-0.8,11.4-4.6,15.6-11.6c4.2-7,6.2-15.4,5.9-24.9c-0.3-9.5-2.7-17.3-7.3-23.4c-4.6-6-10.1-8.7-16.4-8.2
					C467,81.6,461.8,85,457.6,92z M487.8,82.4c4.8,3.4,8.4,8.7,10.9,15.1c4.9,13,2.4,32.6-3.6,41.9c-0.9,1.4-2.1,2.8-3.6,4.2
					c-1.5,1.4-2.5,2.4-3,3.2c-1.4,2.1-1.2,2.4,0.8,0.7c2.6-2.3,7-7.2,8.8-10.4c4.5-8.6,7.7-24.5,3.8-36.3
					c-2.2-6.9-5.2-12.2-9.5-16.5c-1.8-1.8-3.7-3-5.8-3.9c-1.9-0.8-2.4-0.7-1.4,0C485.7,80.9,486.6,81.5,487.8,82.4z"/>
				<path d="M593.4,103.6c8,3.8,13.4,10,15.3,19.3c2.4,11.7-2.4,20.3-7.9,25.1c-5.7,5-12.1,5.8-22.9,5.6c-3.5-0.1-6.3-0.1-8.3,0
					c-1.9,0-3.1,0.1-3.4,0.1c-0.4,0-0.9,0-1.7,0c-12.9,0.3-19.4,0.6-32.5,1.6c-0.8,0-1.3,0-2.1,0c-1.4,0-2.1-0.5-2.2-1.6
					c-0.1-1.1,0.4-1.7,1.3-1.7c0.9-0.1,2-0.8,3.2-2.2c3.2-3.7,4.1-7.2,4-13.1c-0.5-19.8-0.8-39.6-1.5-59.4c-0.6-1.6-1.9-3.3-3.7-5.1
					c-1.2-1.2-2.1-1.7-2.8-1.7c-1.4,0.2-1.6-2-0.2-2.2c0.5-0.1,0.7-0.1,1.1-0.2c12.4,0,18.6,0.1,31,0.6c0.9,0,1.4,0.1,2.3,0.1
					c1.1,0,1.7,0.1,2.8,0.1c5.5,0.4,11.3,1.2,15.8,2.6c4.2,1.3,7.7,3.1,10.6,5.9c2.8,2.8,6.4,8.5,6.4,13.7
					C598,96.2,595.8,100.3,593.4,103.6z M536.8,74.8c0.5,0.5,0.8,1.2,1,2.1c0.8,21.8,1.1,43.7,1.7,65.5c-0.3,1.6-0.2,2.4,0.3,2.3
					c0.5-0.1,0.9-0.9,1.2-2.4c-0.6-21.9-0.9-43.8-1.7-65.7c-0.1-1-2.6-4.3-3.5-4.5C534.5,71.9,536.6,74.6,536.8,74.8z M567.1,99.2
					c4.8,0.1,8.4-0.9,10.5-3.4c3.5-4,2.3-9.1-1.4-12.4c-3.2-2.9-7.8-3.5-14.1-3.7c-2.7-0.1-4.1-0.1-6.8-0.2
					c0.2,7.3,0.3,11.3,0.5,19.6C560.4,99.1,562.7,99.1,567.1,99.2z M570.3,111.6c-5.6-0.1-8.5-0.1-14.1,0
					c0.2,11.7,0.3,17.8,0.6,28.9c4.9-0.1,7.3-0.2,12.1-0.2c0,0,0.4,0,1.4,0c10.3-0.1,19.7-2.7,20.1-12c0.2-5.5-2.3-11.8-6.6-14.2
					c-3.2-1.8-6.4-2.1-10.9-2.3C571.7,111.6,571.2,111.6,570.3,111.6z M582.4,91.5c-0.4,4-1.7,5.9-4.8,7.7c-2,1.2-0.6,1.4,1.1,0.7
					c3.1-1.2,5.3-4.9,5.2-9.2c-0.1-4.4-2-7.9-4.6-9.7c-1.4-0.9-2.5-1.3-3.2-1.2c-0.3,0.1,0,0.4,1,1
					C580.3,82.8,582.9,86.6,582.4,91.5z M592.8,129.1c-0.5,5.4-2.2,8.1-5.6,10.1c-1,0.6-1.3,1-1.1,1.1c0.6,0.3,1.4,0.2,2.4-0.3
					c3.7-1.5,6.1-6.5,6-12.2c0-5.9-2-11.2-5.2-13.9c-1.5-1.3-2.7-1.9-3.7-1.7c-0.3,0.1,0.1,0.6,1.2,1.4
					C590.8,117,593.4,122.4,592.8,129.1z"/>
				<path d="M632.6,77.4c-0.7,0-0.9-0.4-0.7-1c0.2-0.6,0.7-0.9,1.5-0.8c0.5,0,0.7,0,1.2,0.1c14.8,2.3,22.1,3.7,36.8,7
					c0.5,0.2,0.7,0.2,1.2,0.4c0.8,0.3,1.3,0.7,1.5,1.4c0.2,0.7,0,0.9-0.7,0.7c-1.9-0.6-3.4,3.7-3.4,4.6c0,1,0.1,1.9,0.3,2.6
					c5.5,21.6,9.3,43.6,13.5,65.4c0.7,2,2,4.2,3.7,6.5c1.1,1.7,2,2.6,2.6,2.7c1.2,0.2,1.7,2.7,0.3,2.5c-0.4-0.1-0.6-0.1-1-0.1
					c-1.4-0.4-2-0.6-3.4-1c-4-1.2-6-1.8-10.1-2.8c-5.5-1.4-8.2-2.1-13.7-3.3c-0.4-0.2-0.7-0.3-1.1-0.4c-0.7-0.3-1.2-0.8-1.4-1.7
					c-0.2-0.8,0-1.1,0.7-0.9c1.6,0.6,3.1-4,3.3-5.1c0.1-1.1,0.1-2,0-2.8c-1.1-4.9-1.6-7.4-2.7-12.4c-9.4-1.9-14.1-2.7-23.5-4.1
					c-1.2,4.6-1.8,6.8-3,11.2c-0.6,2.5,0,4.5,1.1,7c0.6,1.4,1.2,2.1,1.9,2.1s0.9,0.4,0.7,1.1c-0.2,0.7-0.7,1.1-1.5,1.1
					c-0.5,0-0.7,0-1.2,0c-9.1-1.3-13.6-1.7-22.8-2.5c-1.1-0.3-2.1-0.4-1.8-1.7c0.2-0.8,0.6-1.1,1.2-0.9c0.6,0.1,1.5-0.4,2.8-1.6
					c1.7-1.5,2.9-3,3.7-4.5c5.6-21,10.9-42.2,17.6-62.9C635.9,82.2,634.5,77.5,632.6,77.4z M619.5,150.1c1.1,0.1,3-2.3,3.3-3.1
					c5.6-20.9,10.9-41.9,17.6-62.5c0-0.6-0.9-3.4-1.1-3.7c-0.2-0.3-1-1.5-1.2-0.4c-0.1,0.5,0.8,3.1,0.8,3.6
					c-6.6,20.5-11.9,41.4-17.5,62.2c-0.9,2-0.7,1.6-2.1,3.1C618.8,149.8,618.9,150,619.5,150.1z M649.8,91
					c-3.5,10.7-5.3,17.3-8.8,30.1c6.7,1,10,1.6,16.6,2.9C654.6,110,653.1,102.9,649.8,91z M652.7,90c3.4,12.3,4.9,19.9,7.9,34.5
					c0.7,0.1,1,0.2,1.6,0.3c-3.1-15-4.7-22.6-8.1-35.1c-0.3-0.8-2.2-3.4-3.3-3.6c-0.7-0.1-0.8,0.1-0.3,0.6
					C652,88.4,651.8,88,652.7,90z M663.8,139.6c1.2,5.7,1.8,8.6,3,14.1c0,0.6-1,3.4-0.9,3.9c0.2,1.4,1,0.2,1.2,0
					c0.3-0.3,1.1-3.2,1.1-3.9c-1.1-5.3-1.7-8.1-2.8-13.7C664.7,139.8,664.4,139.7,663.8,139.6z"/>
			</g>
		</g>
	</g>
	<g>
		<g>
			<g>
				<g>
					<path d="M217.6,282c0,0.1-0.7,0.2-2.2,0.3c-0.8,0-1.3,0.1-1.5,0.3c-0.2,0.1-0.4,0.5-0.5,1.1c-0.6,3.2-1.7,5.7-3.3,7.5l0.2,0.4
						l0.7,1.2l0.8,1.2c0.5,0.8,1.1,1.3,1.6,1.5c0.5,0.3,1.5,0.4,2.9,0.5c0.5,0,0.8,0.1,0.8,0.4c0,0.2-0.2,0.2-0.7,0.2h-2.1
						c-1.4,0-2,0-1.7,0c-0.7,0-2.3,0-4.8,0c-0.4-0.7-0.7-1.3-1-1.8c-1.8,1.6-4.2,2.3-7.2,2.3c-2.6,0-4.7-0.6-6.3-1.9
						c-1.6-1.3-2.4-3-2.4-5c0-1.7,0.5-3.2,1.5-4.3c1-1.2,2.7-2.2,5-3.1c-0.9-0.9-1.5-1.5-1.8-2c-0.8-1-1.2-2.2-1.2-3.6
						c0-1.6,0.6-2.9,1.8-3.9c1.2-1,2.7-1.5,4.6-1.5c1.8,0,3.3,0.4,4.5,1.3s1.7,2,1.7,3.4c0,2.4-1.6,4-4.8,4.9c1,1.1,2.4,2.6,4,4.6
						c1.6,2,2.7,3.6,3.4,4.7c1.7-2,2.6-4.5,2.6-7.4c0-0.6-0.3-0.9-0.9-0.9c-1.9,0-2.8-0.1-2.8-0.4c0-0.2,0.4-0.3,1.2-0.3h3.2h3
						C217,281.7,217.6,281.8,217.6,282z M206.3,294.2c-3.7-5-6.5-8.6-8.5-10.9c-1.2,0.9-1.8,2.6-1.8,5.1c0,2,0.6,3.7,1.8,5.2
						c1.2,1.4,2.7,2.1,4.5,2.1C204,295.7,205.3,295.2,206.3,294.2z M203.1,276.8c0-3-0.7-4.4-2.2-4.4c-1.4,0-2.1,1-2.1,3
						c0,0.9,0.3,1.9,0.8,2.9c0.5,1,1.2,1.9,2,2.5C202.6,280,203.1,278.7,203.1,276.8z"/>
					<path d="M248.8,278.7c0,0.2-0.1,0.3-0.2,0.3c-0.3,0-0.5-0.5-0.7-1.4c-0.4-1.8-1-3-1.8-3.7c-0.8-0.7-2-1-3.6-1
						c-0.6,0-1.2,0-1.7,0v21.5c0,0.6,0.2,1,0.5,1.1c0.3,0.2,1.1,0.3,2.5,0.4c0.3,0,0.4,0.1,0.4,0.3c0,0.2-0.2,0.4-0.6,0.4
						c-0.1,0-0.2,0-0.5,0c-0.4,0-0.7,0-0.9,0l-3.6-0.1l-6,0.2c-0.3,0-0.5-0.1-0.5-0.3c0-0.1,0-0.2,0.1-0.2c0.1,0,0.5,0,1.2-0.1
						c1.3,0,2-0.4,2.1-0.9c0-0.3,0.1-2.7,0.1-7.2v-15c-0.3,0-0.6,0-0.9,0c-1.9,0-3.3,0.3-4.1,1s-1.4,1.9-1.7,3.7
						c-0.2,1-0.4,1.5-0.6,1.5c-0.2,0-0.3-0.1-0.3-0.4c0-0.2,0-0.8,0.1-1.9c0.2-2.3,0.3-3.9,0.4-4.7h0.5h2.6c0.1,0,0.9,0,2.5,0.1
						c1.6,0,3.6,0.1,6,0.1c1.3,0,2.6,0,3.6,0c1.1,0,2,0,2.9,0c0.8,0,1.4,0,1.8-0.1c0.1,1.5,0.2,3.5,0.5,5.9
						C248.8,278.4,248.8,278.6,248.8,278.7z"/>
					<path d="M272.9,296.3c0,0.2-0.1,0.3-0.3,0.3s-0.6,0.1-1.4,0.1c-0.2,0-0.7,0-1.6,0c-1.7,0-3-0.1-3.6-0.1c-0.8,0-1.5,0-2.1,0
						c-1.2,0-2,0.1-2.4,0.1c-0.6,0-1-0.1-1-0.4s0.7-0.4,2-0.4c0.3,0,0.6,0,0.7-0.1c0.4,0,0.6-0.2,0.6-0.4c0-0.1-0.1-0.6-0.4-1.5
						l-0.7-2.3c-0.1-0.5-0.4-1.5-0.9-2.9h-0.6h-2.8c-1,0-2,0-3.2,0c-0.2,0.5-0.6,1.5-1.2,3.2l-0.8,2.3c-0.1,0.4-0.2,0.6-0.2,0.9
						c0,0.4,0.3,0.7,0.8,0.8c0.1,0,0.7,0.1,1.7,0.1c0.3,0,0.5,0.1,0.5,0.3c0,0.2-0.2,0.3-0.6,0.3h-5.8c-0.1,0-0.3,0-0.5,0
						c-0.3,0-0.5-0.1-0.5-0.4c0-0.1,0.4-0.2,1.1-0.3c0.9,0,1.5-0.2,1.8-0.5c0.3-0.3,0.7-1.3,1.3-3c0.4-1.2,1.1-2.9,1.9-5.2l4.3-11.8
						c0.2-0.5,0.5-1.3,0.9-2.4c0.3-0.8,0.5-1.2,0.6-1.2c0.1,0,0.4,0.5,0.8,1.6c0.5,1.4,2.5,6.9,6.2,16.5c0.5,1.2,0.9,2.5,1.4,3.8
						c0.4,1.1,0.8,1.7,1.2,2c0.3,0.2,1,0.3,2.2,0.2C272.8,296,272.9,296.1,272.9,296.3z M261.6,288c0-0.1-0.1-0.3-0.2-0.7
						c-1-2.7-1.6-4.7-2.1-5.8c-0.1-0.3-0.3-0.8-0.5-1.4l-0.2-0.6c-0.4,1-0.9,2.4-1.6,4.2c-0.7,2-1.2,3.4-1.5,4.2c0.2,0,0.5,0,0.8,0
						c0.3,0,0.5,0,0.8,0h2C259.7,288,260.5,288,261.6,288z"/>
					<path d="M293.6,278.7c0,0.2-0.1,0.3-0.2,0.3c-0.3,0-0.5-0.5-0.7-1.4c-0.4-1.8-1-3-1.8-3.7c-0.8-0.7-2-1-3.6-1
						c-0.6,0-1.2,0-1.7,0v21.5c0,0.6,0.2,1,0.5,1.1c0.3,0.2,1.1,0.3,2.5,0.4c0.3,0,0.4,0.1,0.4,0.3c0,0.2-0.2,0.4-0.6,0.4
						c-0.1,0-0.2,0-0.5,0c-0.4,0-0.7,0-0.9,0l-3.6-0.1l-6,0.2c-0.3,0-0.5-0.1-0.5-0.3c0-0.1,0-0.2,0.1-0.2c0.1,0,0.5,0,1.2-0.1
						c1.3,0,2-0.4,2.1-0.9c0-0.3,0.1-2.7,0.1-7.2v-15c-0.3,0-0.6,0-0.9,0c-1.9,0-3.3,0.3-4.1,1s-1.4,1.9-1.7,3.7
						c-0.2,1-0.4,1.5-0.6,1.5c-0.2,0-0.3-0.1-0.3-0.4c0-0.2,0-0.8,0.1-1.9c0.2-2.3,0.3-3.9,0.4-4.7h0.5h2.6c0.1,0,0.9,0,2.5,0.1
						c1.6,0,3.6,0.1,6,0.1c1.3,0,2.6,0,3.6,0s2,0,2.9,0c0.8,0,1.4,0,1.8-0.1c0.1,1.5,0.2,3.5,0.5,5.9
						C293.6,278.4,293.6,278.6,293.6,278.7z"/>
					<path d="M314.4,278.7c0,0.2-0.1,0.3-0.2,0.3c-0.3,0-0.5-0.5-0.7-1.4c-0.4-1.8-1-3-1.8-3.7c-0.8-0.7-2-1-3.6-1
						c-0.6,0-1.2,0-1.7,0v21.5c0,0.6,0.2,1,0.5,1.1c0.3,0.2,1.1,0.3,2.5,0.4c0.3,0,0.4,0.1,0.4,0.3c0,0.2-0.2,0.4-0.6,0.4
						c-0.1,0-0.2,0-0.5,0c-0.4,0-0.7,0-0.9,0l-3.6-0.1l-6,0.2c-0.3,0-0.5-0.1-0.5-0.3c0-0.1,0-0.2,0.1-0.2c0.1,0,0.5,0,1.2-0.1
						c1.3,0,2-0.4,2.1-0.9c0-0.3,0.1-2.7,0.1-7.2v-15c-0.3,0-0.6,0-0.9,0c-1.9,0-3.3,0.3-4.1,1s-1.4,1.9-1.7,3.7
						c-0.2,1-0.4,1.5-0.6,1.5c-0.2,0-0.3-0.1-0.3-0.4c0-0.2,0-0.8,0.1-1.9c0.2-2.3,0.3-3.9,0.4-4.7h0.5h2.6c0.1,0,0.9,0,2.5,0.1
						c1.6,0,3.6,0.1,6,0.1c1.3,0,2.6,0,3.6,0s2,0,2.9,0c0.8,0,1.4,0,1.8-0.1c0.1,1.5,0.2,3.5,0.5,5.9
						C314.4,278.4,314.4,278.6,314.4,278.7z"/>
					<path d="M338.2,284.4c0,3.5-1.1,6.5-3.3,9c-2.2,2.4-4.9,3.7-8.1,3.7c-3.1,0-5.8-1.2-8.1-3.7c-2.2-2.5-3.4-5.5-3.4-9
						c0-3.6,1.1-6.6,3.3-9c2.2-2.4,5-3.6,8.3-3.6c3.2,0,5.9,1.2,8,3.6C337.1,277.8,338.2,280.8,338.2,284.4z M332,285
						c0-4.7-0.6-8.2-1.7-10.4c-0.7-1.5-1.9-2.2-3.5-2.2c-1.6,0-2.9,1-3.8,3.1c-1,2.1-1.4,4.8-1.4,8.2c0,5,0.9,8.7,2.6,11.2
						c0.7,1,1.7,1.6,3.1,1.6c1.6,0,2.7-0.7,3.3-2.2C331.5,291.9,332,288.8,332,285z"/>
					<path d="M363.3,284.4c0,3.5-1.1,6.5-3.3,9c-2.2,2.4-4.9,3.7-8.1,3.7c-3.1,0-5.8-1.2-8.1-3.7c-2.2-2.5-3.4-5.5-3.4-9
						c0-3.6,1.1-6.6,3.3-9c2.2-2.4,5-3.6,8.3-3.6c3.2,0,5.9,1.2,8,3.6C362.3,277.8,363.3,280.8,363.3,284.4z M357.1,285
						c0-4.7-0.6-8.2-1.7-10.4c-0.7-1.5-1.9-2.2-3.5-2.2c-1.6,0-2.9,1-3.8,3.1c-1,2.1-1.4,4.8-1.4,8.2c0,5,0.9,8.7,2.6,11.2
						c0.7,1,1.7,1.6,3.1,1.6c1.6,0,2.7-0.7,3.3-2.2C356.6,291.9,357.1,288.8,357.1,285z"/>
					<path d="M391.9,289.7c0,2.1-0.8,3.9-2.3,5.3c-1.5,1.4-3.5,2.1-5.8,2.1c-1.4,0-3.4-0.5-6-1.5c-0.2-0.1-0.4-0.1-0.5-0.1
						c-0.4,0-0.7,0.4-0.9,1.3c-0.1,0.3-0.2,0.4-0.3,0.4c-0.2,0-0.3-0.2-0.3-0.5c0-0.3,0.1-0.9,0.2-1.6c0.1-0.6,0.1-1.4,0.1-2.2
						c0-0.7,0-1.2,0-1.6c0-0.8-0.1-1.3-0.1-1.4c0-0.4,0.1-0.6,0.4-0.6c0.2,0,0.4,0.5,0.6,1.5c0.3,1.7,1.1,3.1,2.2,4.1
						c1.3,1,2.6,1.6,4,1.6c1.3,0,2.3-0.4,3.2-1.2c0.9-0.8,1.3-1.8,1.3-2.9c0-1-0.3-1.8-0.8-2.4c-0.4-0.4-1.8-1.3-4.1-2.5
						c-2.6-1.4-4.3-2.7-5.2-4.1c-0.9-1.3-1.3-2.7-1.3-4.5c0-2,0.7-3.7,2.2-5c1.4-1.3,3.3-2,5.5-2c1.2,0,2.4,0.3,3.8,0.9
						c0.4,0.2,0.8,0.3,1,0.3c0.4,0,0.6-0.3,0.7-0.9c0-0.2,0.2-0.3,0.3-0.3c0.2,0,0.4,0.2,0.4,0.5c0,0.1,0,0.4-0.1,1
						c0,0.5-0.1,1-0.1,1.3c0,1.2,0,2.3,0.1,3.1c0,0.1,0,0.2,0,0.3c0,0.2-0.1,0.3-0.3,0.3c-0.2,0-0.4-0.4-0.6-1.1
						c-0.2-0.8-0.6-1.5-1.1-2.2c-0.5-0.7-1.1-1.3-1.6-1.6c-0.7-0.4-1.5-0.6-2.5-0.6c-1.3,0-2.4,0.3-3.2,1c-0.8,0.6-1.2,1.5-1.2,2.6
						c0,1,0.4,1.8,1.1,2.6c0.7,0.7,2.1,1.7,4.2,2.9c2.6,1.4,4.2,2.5,5.1,3.4C391.3,286.2,391.9,287.8,391.9,289.7z"/>
					<path d="M415.1,272.4c0,0.2-0.4,0.3-1.2,0.3c-1,0-1.6,0.2-1.8,0.5c-0.1,0.1-0.1,0.3-0.1,0.6v15.1c0,5.6-2.7,8.4-8,8.4
						c-2.7,0-4.9-0.8-6.4-2.5c-1.1-1.3-1.7-3.5-1.7-6.7v-13.6c0-0.8-0.1-1.2-0.4-1.4s-1-0.3-2.2-0.4c-0.3,0-0.4-0.1-0.4-0.3
						c0-0.2,0.2-0.3,0.6-0.3h0.3c0.2,0,0.4,0,0.5,0h2.2c2.1,0,3.6,0,4.6,0c1.3,0,1.8,0,1.6,0h0.7c0.4,0,0.6,0.1,0.6,0.4
						c0,0.2-0.4,0.3-1.1,0.3c-1,0-1.6,0.2-1.7,0.6c0,0.3-0.1,0.5-0.1,0.7v13.3c0,1.9,0,3.1,0.1,3.7c0.2,1.5,0.6,2.6,1.3,3.3
						c0.9,0.9,2,1.3,3.4,1.3c1.6,0,2.8-0.5,3.5-1.6c0.9-1.3,1.4-3.5,1.4-6.7v-11.7c0-0.2,0-0.5,0-0.8c0-0.3,0-0.5,0-0.6
						c0-0.6-0.2-1-0.5-1.2c-0.2-0.1-0.7-0.2-1.4-0.2c-0.8,0-1.3-0.2-1.3-0.4c0-0.2,0.2-0.3,0.5-0.3c0.4,0,0.9,0,1.6,0.1
						c0.7,0,1.2,0.1,1.6,0.1c0,0,0.2,0,0.6-0.1c0.4,0,0.8,0,1.1,0h0.9C414.7,272.1,415.1,272.2,415.1,272.4z"/>
					<path d="M434.4,277.8c0,2-0.8,3.7-2.3,4.9c-1.5,1.2-3.5,1.9-6,1.9c-0.6,0-1.5-0.1-2.7-0.2v9.1c0,1.3,0.1,2.1,0.3,2.3
						c0.2,0.2,0.8,0.4,2,0.4c0.6,0,1,0.1,1,0.3c0,0.2-0.2,0.3-0.6,0.3h-0.5c-0.1,0-0.7,0-1.6,0c-1,0-2,0-3,0h-4.1
						c-0.8,0-1.2,0-1.3-0.1c-0.1,0-0.2-0.1-0.2-0.2c0-0.2,0.2-0.3,0.6-0.3c1.2,0,1.8-0.1,2.1-0.3c0.2-0.2,0.3-0.7,0.3-1.6V276
						c0-1.5-0.1-2.4-0.2-2.7c-0.1-0.3-0.7-0.5-1.8-0.5c-0.6,0-1-0.1-1-0.3c0-0.2,0.3-0.3,0.9-0.3l10.1,0c2.5,0,4.3,0.4,5.6,1.1
						C433.5,274.3,434.4,275.9,434.4,277.8z M428.7,278c0-3.5-1.1-5.3-3.3-5.3c-1.3,0-2,0.6-2,1.7v9.3c1,0,1.6,0,2-0.1
						c0.7-0.1,1.3-0.4,1.8-0.8C428.2,282,428.7,280.3,428.7,278z"/>
					<path d="M454.4,277.8c0,2-0.8,3.7-2.3,4.9s-3.5,1.9-6,1.9c-0.6,0-1.5-0.1-2.7-0.2v9.1c0,1.3,0.1,2.1,0.3,2.3
						c0.2,0.2,0.8,0.4,2,0.4c0.6,0,1,0.1,1,0.3c0,0.2-0.2,0.3-0.6,0.3h-0.5c-0.1,0-0.7,0-1.6,0c-1,0-2,0-3,0h-4.1
						c-0.8,0-1.2,0-1.3-0.1c-0.1,0-0.2-0.1-0.2-0.2c0-0.2,0.2-0.3,0.6-0.3c1.2,0,1.8-0.1,2.1-0.3c0.2-0.2,0.3-0.7,0.3-1.6V276
						c0-1.5-0.1-2.4-0.2-2.7c-0.1-0.3-0.7-0.5-1.8-0.5c-0.6,0-1-0.1-1-0.3c0-0.2,0.3-0.3,0.9-0.3l10.1,0c2.5,0,4.3,0.4,5.6,1.1
						C453.5,274.3,454.4,275.9,454.4,277.8z M448.7,278c0-3.5-1.1-5.3-3.3-5.3c-1.3,0-2,0.6-2,1.7v9.3c1,0,1.6,0,2-0.1
						c0.7-0.1,1.3-0.4,1.8-0.8C448.1,282,448.7,280.3,448.7,278z"/>
					<path d="M474.6,290.7c0,0.4,0,0.8,0,1.1c-0.1,1-0.1,1.9-0.1,2.5l0,2.5c-3-0.1-8.5-0.2-16.4-0.2h-1.5c-1,0-1.6-0.1-1.6-0.3
						c0-0.2,0.2-0.3,0.5-0.3c1.2,0,1.9-0.2,2.3-0.5c0.2-0.2,0.3-0.8,0.3-1.7v-19.2c0-0.8-0.1-1.3-0.2-1.5c-0.3-0.4-0.7-0.5-1.3-0.5
						h-0.9c-0.3,0-0.4-0.1-0.4-0.3c0-0.2,0.2-0.3,0.5-0.3c0.2,0,0.4,0,0.6,0h9c0.1,0,0.2,0,0.4,0c0.2,0,0.4,0.1,0.4,0.3
						c0,0.2-0.3,0.3-0.9,0.3c-0.9,0-1.4,0.1-1.5,0.3c-0.2,0.2-0.2,1.1-0.2,2.8v8.4c0,1.7,0,5.6,0.1,11.6c0.4,0,1,0,1.5,0
						c2.5,0,4.2-0.1,5.1-0.3c1.5-0.3,2.5-1.1,3-2.3c0.3-0.6,0.5-1.6,0.8-2.9c0.1-0.4,0.2-0.6,0.3-0.6
						C474.5,289.9,474.6,290.1,474.6,290.7z"/>
					<path d="M486.4,296.4c0,0.2-0.2,0.3-0.5,0.3c-0.2,0-0.3,0-0.5,0c-1.4-0.1-2.6-0.1-3.6-0.1c-1.1,0-2.6,0-4.7,0.1
						c-0.7,0-1.2,0-1.5,0c-0.4,0-0.5-0.1-0.5-0.3c0-0.1,0.1-0.2,0.2-0.2c0.1,0,0.6,0,1.4-0.1c0.7-0.1,1.2-0.4,1.3-0.7
						c0.1-0.3,0.2-1.2,0.2-2.9v-17c0-0.4,0-0.9,0-1.3c0-0.4,0-0.6,0-0.6c0-0.6-0.6-0.9-1.8-0.9c-0.7,0-1-0.1-1-0.2
						c0-0.2,0-0.3,0.1-0.3c0.1,0,0.4,0,0.9,0c-0.2,0,0.2,0,1.3,0c1.1,0,2,0,2.8,0h1.8c0.4,0,0.9,0,1.6,0c0.7,0,1.2,0,1.5,0h0.4
						c0.3,0,0.5,0.1,0.5,0.3c0,0.1-0.1,0.2-0.2,0.3c-0.1,0-0.5,0.1-1.1,0.1c-0.7,0-1.2,0.2-1.3,0.5l-0.1,0.7v20c0,1,0.1,1.6,0.3,1.8
						c0.2,0.2,1,0.3,2.3,0.4C486.3,296.1,486.4,296.2,486.4,296.4z"/>
					<path d="M507,290.4c0,0,0,1.1,0,3.3c0,1.1,0,1.9-0.1,2.4c0,0.5,0,0.7,0,0.7c-6.2-0.3-11.7-0.4-16.4-0.2h-3
						c-0.4,0-0.6-0.1-0.6-0.3c0-0.1,0.1-0.2,0.2-0.2c0.1,0,0.5-0.1,1.1-0.1c1.1-0.1,1.7-0.4,1.8-1c0-0.3,0.1-0.6,0.1-1v-17.9
						c0-1.4,0-2.2,0-2.3c0-0.4-0.1-0.6-0.4-0.8c-0.2-0.1-0.6-0.2-1.3-0.2c-0.7,0-1.1-0.1-1.1-0.3c0-0.2,0.3-0.4,1-0.4
						c0.6,0,1.6,0,2.7,0c4.3-0.1,7.9-0.1,10.7-0.1h2.4c0.5,0,1.2,0,1.9-0.1l0.3,3.9c0.1,1.2,0.2,2,0.2,2.3c0,0.2-0.1,0.4-0.4,0.4
						c-0.2,0-0.4-0.3-0.5-0.9c-0.2-1.6-0.9-2.8-2-3.6c-1.1-0.7-2.7-1.1-4.9-1.1c-0.7,0-1.8,0-3.4,0.1v10.5c2.6,0,4.3-0.2,4.9-0.6
						c0.7-0.4,1.1-1.4,1.4-3c0.1-0.9,0.3-1.3,0.5-1.3c0.2,0,0.3,0.2,0.3,0.6c0,0.4,0,1.3-0.1,2.6c0,0.4,0,1.1,0,1.8
						c0,2,0,3.6,0.1,4.6c0,0.1,0,0.3,0,0.5c0,0.3-0.1,0.4-0.3,0.4c-0.2,0-0.3-0.1-0.3-0.2c0-0.1-0.1-0.5-0.2-1.2
						c-0.2-1.7-0.6-2.7-1-3.1c-0.4-0.4-1.4-0.6-2.9-0.6h-2.4v11.9h2.3c2.6,0,4.2-0.1,4.8-0.2c0.7-0.1,1.4-0.4,2.1-0.8
						c0.6-0.5,1-1,1.2-1.5c0.2-0.5,0.5-1.5,0.7-3c0.1-0.4,0.2-0.5,0.4-0.5C506.9,289.9,507,290.1,507,290.4z"/>
					<path d="M524.5,289.7c0,2.1-0.8,3.9-2.3,5.3c-1.5,1.4-3.5,2.1-5.8,2.1c-1.4,0-3.4-0.5-6-1.5c-0.2-0.1-0.4-0.1-0.5-0.1
						c-0.4,0-0.7,0.4-0.9,1.3c-0.1,0.3-0.2,0.4-0.3,0.4c-0.2,0-0.3-0.2-0.3-0.5c0-0.3,0.1-0.9,0.2-1.6c0.1-0.6,0.1-1.4,0.1-2.2
						c0-0.7,0-1.2,0-1.6c0-0.8-0.1-1.3-0.1-1.4c0-0.4,0.1-0.6,0.4-0.6s0.4,0.5,0.6,1.5c0.3,1.7,1.1,3.1,2.2,4.1c1.3,1,2.6,1.6,4,1.6
						c1.3,0,2.4-0.4,3.2-1.2c0.9-0.8,1.3-1.8,1.3-2.9c0-1-0.3-1.8-0.9-2.4c-0.4-0.4-1.8-1.3-4.1-2.5c-2.6-1.4-4.3-2.7-5.2-4.1
						c-0.9-1.3-1.3-2.7-1.3-4.5c0-2,0.7-3.7,2.2-5c1.4-1.3,3.3-2,5.5-2c1.2,0,2.4,0.3,3.8,0.9c0.4,0.2,0.8,0.3,1,0.3
						c0.4,0,0.6-0.3,0.7-0.9c0-0.2,0.2-0.3,0.3-0.3c0.2,0,0.4,0.2,0.4,0.5c0,0.1,0,0.4-0.1,1c0,0.5-0.1,1-0.1,1.3
						c0,1.2,0,2.3,0.1,3.1c0,0.1,0,0.2,0,0.3c0,0.2-0.1,0.3-0.3,0.3c-0.2,0-0.4-0.4-0.6-1.1c-0.2-0.8-0.6-1.5-1.1-2.2
						c-0.5-0.7-1.1-1.3-1.6-1.6c-0.7-0.4-1.5-0.6-2.5-0.6c-1.3,0-2.4,0.3-3.2,1c-0.8,0.6-1.2,1.5-1.2,2.6c0,1,0.4,1.8,1.1,2.6
						c0.7,0.7,2.1,1.7,4.2,2.9c2.5,1.4,4.2,2.5,5.1,3.4C523.9,286.2,524.5,287.8,524.5,289.7z"/>
				</g>
			</g>
			<rect x="24.9" y="283.4" width="152" height="3.3"/>
			<rect x="537.4" y="283.4" width="152" height="3.3"/>
		</g>
	</g>
</g>
</svg>
